<svg width="192" height="54" viewBox="0 0 192 54" fill="none" xmlns="http://www.w3.org/2000/svg">
<g clip-path="url(#clip0_4824_22663)">
<path d="M2.13477 10.1641V0.237305H3.33187V10.1641H2.13477Z" fill="#151515"/>
<path d="M9.6366 10.1641V1.36201H6.78906V0.237305H13.6777V1.36201H10.8443V10.1641H9.63306H9.6366Z" fill="#151515"/>
<path d="M16.748 3.69517L18.0549 0.0136719L19.2237 0.415354L17.5378 4.01652L16.748 3.69867V3.69517Z" fill="#151515"/>
<path d="M27.0549 4.65245C27.7101 4.92839 28.2024 5.29514 28.5353 5.75271C28.8683 6.21027 29.0347 6.74818 29.0347 7.3734C29.0347 8.28505 28.7408 9.02205 28.1528 9.58091C27.5649 10.1398 26.7822 10.4192 25.8118 10.4192C25.0184 10.4192 24.3526 10.2201 23.8178 9.81842C23.283 9.41674 22.9182 8.85089 22.7305 8.1139L23.8178 7.58647C23.963 8.18725 24.2074 8.64132 24.5438 8.95219C24.8803 9.26305 25.3053 9.41674 25.8118 9.41674C26.4139 9.41674 26.8991 9.24559 27.2709 8.90329C27.6428 8.56099 27.827 8.11739 27.827 7.5725C27.827 7.1289 27.696 6.74469 27.4374 6.41635C27.1789 6.08802 26.7893 5.81209 26.2651 5.58505L25.0397 5.0681C24.3703 4.79216 23.8709 4.43938 23.5451 4.00277C23.2157 3.56965 23.0528 3.04921 23.0528 2.44494C23.0528 1.73938 23.3184 1.15607 23.8496 0.695009C24.3809 0.233948 25.0609 0.00341797 25.8861 0.00341797C26.4918 0.00341797 27.0159 0.129162 27.4587 0.384142C27.9014 0.63563 28.2449 1.00937 28.4928 1.50187L27.5012 2.12709C27.278 1.74287 27.023 1.45646 26.7432 1.26784C26.4634 1.07923 26.1482 0.984919 25.7941 0.984919C25.3443 0.984919 24.9759 1.12114 24.689 1.39009C24.4022 1.66254 24.2605 2.00833 24.2605 2.42748C24.2605 2.78026 24.3703 3.08414 24.5899 3.34262C24.8095 3.60109 25.153 3.82813 25.6134 4.02722L27.0514 4.65245H27.0549Z" fill="#151515"/>
<path d="M40.7675 10.1641V1.36201H37.9199V0.237305H44.8086V1.36201H41.9752V10.1641H40.7639H40.7675Z" fill="#151515"/>
<path d="M48.2559 10.1641V0.237305H49.453V4.05503H54.801V0.237305H56.0193V10.1641H54.801V5.17974H49.453V10.1641H48.2559Z" fill="#151515"/>
<path d="M70.8379 5.22198C70.8379 5.93103 70.7033 6.60167 70.4376 7.23039C70.172 7.8591 69.7824 8.41797 69.276 8.90697C68.766 9.39597 68.1816 9.7732 67.5193 10.0352C66.857 10.3006 66.1699 10.4334 65.458 10.4334C64.7461 10.4334 64.0626 10.3006 63.4038 10.0352C62.745 9.76971 62.1607 9.39597 61.6542 8.90697C61.1406 8.41447 60.7511 7.85212 60.4819 7.22689C60.2127 6.59817 60.0781 5.93103 60.0781 5.22547C60.0781 4.51991 60.2127 3.84578 60.4819 3.21357C60.7511 2.58136 61.1406 2.02249 61.6542 1.53C62.1571 1.04798 62.7415 0.67424 63.4003 0.412274C64.0626 0.150308 64.7461 0.0175781 65.458 0.0175781C66.1699 0.0175781 66.8641 0.150308 67.5264 0.412274C68.1887 0.67424 68.773 1.04798 69.276 1.53C69.786 2.019 70.172 2.57786 70.4376 3.20658C70.7033 3.83879 70.8379 4.50943 70.8379 5.22547V5.22198ZM65.458 9.31564C66.007 9.31564 66.5311 9.21434 67.0305 9.00826C67.5299 8.80218 67.9762 8.50179 68.3764 8.11059C68.7695 7.72288 69.0705 7.28278 69.276 6.78679C69.4814 6.29429 69.5841 5.77036 69.5841 5.22198C69.5841 4.67359 69.4814 4.13569 69.2724 3.63621C69.0635 3.13323 68.766 2.69313 68.3728 2.30542C67.9797 1.91771 67.5334 1.62081 67.0341 1.41822C66.5347 1.21564 66.0105 1.11434 65.4544 1.11434C64.8984 1.11434 64.3636 1.21564 63.8642 1.41822C63.3648 1.62081 62.9221 1.91771 62.5361 2.30542C62.1429 2.70011 61.8419 3.14371 61.6329 3.6397C61.4275 4.13569 61.3248 4.66311 61.3248 5.21848C61.3248 5.77385 61.4275 6.2908 61.6294 6.77631C61.8348 7.26531 62.1359 7.70891 62.5325 8.10361C62.9363 8.5018 63.3861 8.80218 63.8784 9.00477C64.3707 9.20736 64.8949 9.30865 65.4509 9.30865L65.458 9.31564Z" fill="#151515"/>
<path d="M74.8613 0.237305H76.0726V6.41272C76.0726 7.41518 76.2886 8.15218 76.7207 8.62372C77.1528 9.09526 77.8328 9.32928 78.7608 9.32928C79.6887 9.32928 80.3652 9.09526 80.8008 8.62372C81.2329 8.15218 81.4489 7.41518 81.4489 6.41272V0.237305H82.6673V6.41272C82.6673 7.75399 82.3414 8.75994 81.6933 9.42708C81.0452 10.0942 80.0677 10.426 78.7608 10.426C77.4539 10.426 76.4834 10.0942 75.8353 9.42708C75.1872 8.75994 74.8613 7.75749 74.8613 6.41272V0.237305Z" fill="#151515"/>
<path d="M92.6895 5.03659H96.8404V5.36841C96.8404 6.93323 96.3906 8.16621 95.4945 9.07087C94.5949 9.97553 93.3695 10.4261 91.8147 10.4261C91.3436 10.4261 90.8938 10.3772 90.4653 10.2759C90.0367 10.1746 89.6401 10.0314 89.2788 9.8428C88.4536 9.39571 87.8161 8.77747 87.3663 7.98808C86.9165 7.19869 86.6934 6.30451 86.6934 5.29856C86.6934 4.47074 86.8279 3.72326 87.0971 3.05612C87.3663 2.38898 87.77 1.80218 88.3119 1.29571C88.7653 0.869578 89.293 0.548233 89.8915 0.331674C90.4936 0.115115 91.1559 0.00683594 91.8855 0.00683594C92.8524 0.00683594 93.6918 0.18148 94.4037 0.527276C95.1156 0.873071 95.7035 1.39351 96.171 2.0886L95.1687 2.88148C94.8074 2.2807 94.3541 1.83012 93.8158 1.52973C93.2739 1.22935 92.647 1.07915 91.9316 1.07915C90.7628 1.07915 89.8136 1.46686 89.084 2.24577C88.3544 3.02469 87.9896 4.04112 87.9896 5.29856C87.9896 6.48264 88.3615 7.45367 89.1017 8.21511C89.8419 8.97307 90.784 9.3538 91.9316 9.3538C92.941 9.3538 93.7803 9.05341 94.4497 8.44914C95.1226 7.84487 95.4945 7.05897 95.5654 6.09144H92.693V5.0331L92.6895 5.03659Z" fill="#151515"/>
<path d="M100.729 10.1641V0.237305H101.926V4.05503H107.274V0.237305H108.492V10.1641H107.274V5.17974H101.926V10.1641H100.729Z" fill="#151515"/>
<path d="M114.769 10.1641V1.36201H111.922V0.237305H118.811V1.36201H115.977V10.1641H114.766H114.769Z" fill="#151515"/>
<path d="M122.26 10.1641V0.237305H127.569V1.31661H123.457V4.16331H127.569V5.26007H123.457V10.1641H122.26Z" fill="#151515"/>
<path d="M131.465 0.237305H132.676V6.41272C132.676 7.41518 132.892 8.15218 133.324 8.62372C133.756 9.09526 134.436 9.32928 135.364 9.32928C136.292 9.32928 136.969 9.09526 137.404 8.62372C137.836 8.15218 138.052 7.41518 138.052 6.41272V0.237305H139.271V6.41272C139.271 7.75399 138.945 8.75994 138.297 9.42708C137.649 10.0942 136.671 10.426 135.364 10.426C134.057 10.426 133.087 10.0942 132.439 9.42708C131.791 8.75994 131.465 7.75749 131.465 6.41272V0.237305Z" fill="#151515"/>
<path d="M143.762 10.1641V0.237305H144.959V9.03937H148.759V10.1641H143.762Z" fill="#151515"/>
<path d="M152.598 9.5007C152.598 9.28065 152.679 9.08854 152.839 8.93136C152.998 8.77418 153.193 8.69385 153.416 8.69385C153.639 8.69385 153.841 8.77069 154.004 8.92787C154.167 9.08505 154.248 9.27367 154.248 9.5007C154.248 9.72774 154.167 9.90937 154.007 10.0596C153.848 10.2098 153.65 10.2866 153.416 10.2866C153.182 10.2866 152.994 10.2098 152.835 10.0596C152.676 9.90937 152.598 9.72076 152.598 9.5007Z" fill="#151515"/>
<path d="M165.1 10.1641V0.237305H166.297V10.1641H165.1Z" fill="#151515"/>
<path d="M172.601 10.1641V1.36201H169.754V0.237305H176.643V1.36201H173.809V10.1641H172.598H172.601Z" fill="#151515"/>
<path d="M179.713 3.69517L181.02 0.0136719L182.189 0.415354L180.503 4.01652L179.713 3.69867V3.69517Z" fill="#151515"/>
<path d="M190.02 4.65245C190.675 4.92839 191.167 5.29514 191.5 5.75271C191.833 6.21027 192 6.74818 192 7.3734C192 8.28505 191.706 9.02205 191.118 9.58091C190.53 10.1398 189.747 10.4192 188.777 10.4192C187.983 10.4192 187.317 10.2201 186.783 9.81842C186.248 9.41674 185.883 8.85089 185.695 8.1139L186.783 7.58647C186.928 8.18725 187.172 8.64132 187.509 8.95219C187.845 9.26305 188.27 9.41674 188.777 9.41674C189.379 9.41674 189.864 9.24559 190.236 8.90329C190.608 8.56099 190.792 8.11739 190.792 7.5725C190.792 7.1289 190.661 6.74469 190.402 6.41635C190.144 6.08802 189.754 5.81209 189.23 5.58505L188.005 5.0681C187.335 4.79216 186.836 4.43938 186.51 4.00277C186.181 3.56965 186.018 3.04921 186.018 2.44494C186.018 1.73938 186.283 1.15607 186.814 0.695009C187.346 0.233948 188.026 0.00341797 188.851 0.00341797C189.457 0.00341797 189.981 0.129162 190.423 0.384142C190.866 0.63563 191.21 1.00937 191.458 1.50187L190.466 2.12709C190.243 1.74287 189.988 1.45646 189.708 1.26784C189.428 1.07923 189.113 0.984919 188.759 0.984919C188.309 0.984919 187.941 1.12114 187.654 1.39009C187.367 1.66254 187.225 2.00833 187.225 2.42748C187.225 2.78026 187.335 3.08414 187.555 3.34262C187.774 3.60109 188.118 3.82813 188.578 4.02722L190.016 4.65245H190.02Z" fill="#151515"/>
<path fill-rule="evenodd" clip-rule="evenodd" d="M188.856 29.4276H189.221C189.472 29.4276 189.621 29.4276 189.685 29.3927C189.745 29.3752 189.791 29.3438 189.83 29.2844C189.865 29.2425 189.876 29.1796 189.876 29.1063C189.876 29.0224 189.858 28.9561 189.819 28.9107C189.759 28.8513 189.709 28.8199 189.614 28.8094C189.575 28.8024 189.447 28.7989 189.256 28.7989H188.852V29.4241L188.856 29.4276ZM85.3456 24.2861L78.5739 31.4116V32.1591L80.3235 32.166L80.281 42.7146C80.281 43.5214 80.157 44.1536 79.9268 44.6321C79.7072 45.1037 79.307 45.4774 78.7686 45.7988C79.9268 46.0922 81.0283 46.4939 82.112 47.0387C83.1887 47.5767 84.2548 48.2927 85.3137 49.145C86.2558 48.401 87.0988 47.7653 87.8284 47.2064C88.5757 46.6056 89.2734 46.0887 89.9428 45.6206L89.1955 44.9849L87.8106 45.8826L85.2819 44.1711L85.3279 32.1416L90.4138 32.1521L90.4351 29.983L85.3314 29.962L85.3456 24.2756V24.2861ZM66.9854 38.4463L66.872 38.4008L64.2016 37.1609L64.2193 32.4664C64.9949 32.8227 65.7812 33.0637 66.5674 33.2279C66.6843 33.2628 66.7729 33.2838 66.8897 33.3082C67.552 33.4305 68.225 33.4759 68.9156 33.4794C69.2379 33.4794 69.6239 33.4619 70.0985 33.4375C70.566 33.392 71.0796 33.3257 71.6427 33.2453L66.9854 38.4497V38.4463ZM71.0583 40.2032L71.0442 45.5857C70.1729 45.1805 69.3477 44.8801 68.5118 44.6356C67.9593 44.4889 67.4104 44.3911 66.8578 44.3457C66.5958 44.3143 66.3195 44.3143 66.0503 44.3143C65.512 44.3143 64.963 44.3387 64.3964 44.4331C63.8226 44.4994 63.2595 44.6321 62.6857 44.8068L66.8756 40.3324L68.2143 38.9038L71.0619 40.1997L71.0583 40.2032ZM75.0605 26.4901C74.7098 26.4901 74.4194 26.5879 74.1644 26.773C73.9059 26.9651 73.7607 27.1957 73.7607 27.4611C73.7607 27.6707 73.9909 27.9816 74.4053 28.4007C74.8409 28.8059 75.0534 29.1412 75.0534 29.3473C75.0534 29.7839 74.8019 30.1507 74.3096 30.4056C73.8138 30.6606 73.1798 30.7794 72.344 30.7794C71.4373 30.7759 70.4314 30.6327 69.2945 30.3428C68.5189 30.1541 67.7362 29.8922 66.9039 29.5569C66.5426 29.4067 66.146 29.2425 65.7564 29.0783C64.8745 29.8014 63.9041 30.4545 62.8734 31.0309C61.818 31.5967 60.713 32.0613 59.5407 32.456L59.5123 39.0331L64.3964 41.2441L58.17 48.2822L59.1298 48.8061C60.0223 48.4324 60.8582 48.1704 61.6728 47.9888C62.4909 47.8142 63.3161 47.7129 64.0882 47.7129C64.9878 47.7129 65.8272 47.8421 66.6312 48.0726C66.702 48.0726 66.7799 48.1041 66.8508 48.1215C67.5981 48.3626 68.3418 48.6874 69.0714 49.0786C70.1091 48.3451 71.1787 47.7094 72.2306 47.2204C73.3038 46.7244 74.3415 46.3262 75.404 46.0677L75.4288 38.317L70.8281 35.9628L75.3013 30.9296C75.8503 30.3463 76.2434 29.8258 76.4807 29.3787C76.718 28.9596 76.8278 28.5334 76.8278 28.1387C76.8384 27.6393 76.679 27.2306 76.3497 26.9512C76.0238 26.6438 75.5776 26.4971 75.0605 26.4971V26.4901ZM104.446 45.7534C103.607 45.5159 102.767 45.2504 101.864 44.9605L101.733 44.9151C100.88 44.6531 99.9587 44.3353 99.0166 44.0069L99.0591 32.5887C99.9977 32.9694 100.919 33.3082 101.765 33.5876L101.91 33.6365C102.81 33.9474 103.649 34.2338 104.496 34.4679L104.45 45.7569L104.446 45.7534ZM101.783 29.4695C101.638 29.3927 101.51 29.3228 101.386 29.225C100.362 30.1017 99.2894 30.7724 98.11 31.3138C96.9447 31.8796 95.6378 32.2953 94.1609 32.5712L94.1149 42.5748C94.1078 43.49 93.9909 44.1816 93.7855 44.6531C93.5836 45.1142 93.1763 45.5263 92.6345 45.8477C94.2955 46.1236 95.9035 46.5707 97.4654 47.1331C98.9989 47.7059 100.394 48.3975 101.712 49.1974L101.779 49.2497C102.753 48.5477 103.83 47.9399 105.077 47.402C106.327 46.8606 107.712 46.4135 109.234 46.0642L109.284 32.2604C108.218 32.1556 107.028 31.8307 105.679 31.3347C104.464 30.8667 103.157 30.245 101.776 29.466L101.783 29.4695ZM150.092 27.9047H150.503L154.441 23.3605H151.282L150.092 27.9047ZM149.614 29.3927L144.418 32.697L145.087 33.2908L146.635 32.4525L148.193 33.7728C147.698 34.7228 147.336 35.631 147.085 36.5845C146.84 37.5032 146.72 38.4637 146.72 39.4557C146.72 40.5664 146.918 42.0858 147.322 44.0209C147.754 45.9944 147.953 47.4055 147.953 48.2578C147.953 49.3685 147.701 50.3186 147.223 51.1359C146.745 51.9567 146.001 52.6902 144.963 53.3818L145.558 54.0036C147.825 53.1513 149.507 52.0825 150.602 50.818C151.689 49.5746 152.224 48.0622 152.238 46.2703C152.238 45.7289 152.157 44.7858 151.962 43.3922C151.756 41.9985 151.675 40.8633 151.675 40.0215C151.678 38.6733 151.891 37.4473 152.337 36.34C152.748 35.2083 153.424 34.1046 154.349 33.0113C153.616 32.5957 152.879 32.0927 152.153 31.5199C151.409 30.961 150.552 30.2485 149.61 29.3927H149.614ZM179.594 32.5014L181.925 34.4748L184.283 36.4413L181.918 37.9503L179.573 39.4417L179.594 32.4979V32.5014ZM183.759 46.2389L181.886 45.5682L179.8 44.7893L179.817 40.5874C180.561 40.1124 181.255 39.6443 181.921 39.1937C182.8 38.6419 183.635 38.1214 184.418 37.6289C185.81 36.7662 187.17 35.9523 188.509 35.1664L181.946 29.5604L181.939 29.5115C180.547 30.3532 179.297 31.0204 178.167 31.5653C177.037 32.0997 175.975 32.5468 174.979 32.8541L174.944 43.993C174.94 44.7928 174.816 45.432 174.597 45.9036C174.377 46.3716 173.977 46.7488 173.456 47.0737C174.792 47.2763 176.063 47.5766 177.26 47.9818C178.436 48.387 179.538 48.8865 180.572 49.4803C181.014 49.2008 181.457 48.8935 181.889 48.6315C182.725 48.0936 183.533 47.6046 184.326 47.1331C185.523 46.4345 186.667 45.7743 187.779 45.1701L187.05 44.4715L183.763 46.2389H183.759ZM163.292 39.3998L163.313 32.4525L165.65 34.4259L167.995 36.3889L165.643 37.9014L163.292 39.3963V39.3998ZM165.643 39.1343C166.518 38.5825 167.351 38.0585 168.133 37.58C169.532 36.7068 170.885 35.8825 172.224 35.1071L165.672 29.501L165.654 29.4486C164.259 30.2973 163.019 30.9715 161.886 31.5164C160.749 32.0368 159.69 32.4909 158.673 32.7948L158.638 43.9371C158.631 44.7439 158.535 45.3726 158.305 45.8407C158.078 46.3087 157.699 46.693 157.168 47.0178C158.507 47.2134 159.771 47.5173 160.951 47.9294C162.141 48.3381 163.256 48.8306 164.287 49.4174C164.726 49.145 165.169 48.8446 165.604 48.5721C166.437 48.0377 167.223 47.5487 168.045 47.0737C169.21 46.3786 170.393 45.7254 171.498 45.1142L170.758 44.4121L167.46 46.176L165.619 45.5124L163.522 44.7265L163.533 40.5315C164.266 40.0565 164.967 39.5814 165.636 39.1309L165.643 39.1343ZM22.3031 33.3431L18.6126 35.4459L18.648 25.6623L20.1426 24.838L22.3243 27.2236L26.0289 31.2439L22.3031 33.3397V33.3431ZM17.3588 43.2594C16.9692 43.1512 16.6009 43.1058 16.2538 43.0638H16.2113C15.8394 43.0184 15.4888 42.9905 15.1488 42.9905L15.2161 27.5589L16.3211 26.9477L17.419 26.3155L17.3588 43.2594ZM9.50329 35.0861L7.6368 33.9509L5.77386 32.8192L7.64388 31.7469L9.51391 30.6746L9.50329 35.0861ZM34.7345 45.5997C34.0049 45.1526 33.1124 43.7973 32.103 41.6073C31.7594 40.8459 31.4867 40.2591 31.2813 39.8329C30.5765 38.3694 29.6309 37.0875 28.455 36.0292C27.2615 34.9394 25.8519 34.0592 24.2014 33.3676L31.4407 29.4067C30.6792 28.6033 29.645 27.5345 28.3736 26.1583C26.1423 23.7796 24.7185 22.3056 24.0916 21.7153L22.342 22.627L16.3175 25.8299L14.9434 26.5495C14.7698 25.0406 14.1536 23.8739 13.0521 23.0496C11.9648 22.2393 10.4666 21.8341 8.59307 21.8236C8.2991 21.8236 7.96618 21.8236 7.67576 21.8481C6.83992 21.9109 6.00407 22.0995 5.20718 22.3545C4.06675 22.7283 2.98299 23.2382 1.92047 23.9508V24.5306C2.73861 24.4049 3.40091 24.2826 3.99592 24.2162C4.59801 24.1429 5.13635 24.1045 5.57552 24.108C6.37241 24.108 7.09138 24.2267 7.66159 24.4642C7.96618 24.6144 8.23889 24.7506 8.49744 24.9393C9.18453 25.5051 9.52808 26.2351 9.52454 27.2096L9.50683 29.5394L7.64034 30.5942L1.0315 34.3246V34.5726C3.65237 35.4913 5.69948 36.6579 7.13034 38.076C7.28971 38.2437 7.44555 38.4008 7.60847 38.5895C8.75953 39.8818 9.41829 41.3558 9.6237 43.0184C8.93307 43.1721 8.26723 43.3363 7.59076 43.5563C6.42199 43.9231 5.30281 44.3702 4.26863 44.9325C2.66423 45.7708 1.23692 46.8606 -0.00976562 48.1704L0.18857 48.4848C1.97005 47.9015 3.72675 47.43 5.4551 47.161C6.16345 47.0143 6.87887 46.9235 7.57305 46.8571C8.56827 46.7558 9.51745 46.7174 10.4595 46.7174C12.0569 46.7279 13.5621 46.9235 15 47.3252C15.3896 47.4544 15.804 47.5871 16.2184 47.7338C17.3057 48.1355 18.4567 48.6874 19.6963 49.372L22.2428 47.3461L25.1612 45.0303L24.375 44.4051L23.2841 45.2818C22.9654 45.1212 22.6147 44.9395 22.2464 44.8138C21.9347 44.6391 21.5557 44.5029 21.1874 44.3492C20.4295 44.0698 19.5511 43.7659 18.5524 43.455L18.5772 36.5531H18.6799C20.0328 36.5566 21.2405 36.8535 22.2676 37.4578C22.6218 37.6254 22.9335 37.8699 23.2558 38.1249C24.506 39.1483 25.6925 40.9437 26.8152 43.4446C27.5767 45.177 28.285 46.4205 28.8977 47.2553C29.5211 48.0866 30.2613 48.6979 31.0865 49.1624H31.7559L36.6399 45.4914L35.9032 44.8277L34.7132 45.5997H34.7345ZM56.1867 45.7708C55.8254 45.6136 55.5279 45.4146 55.3012 45.1805C55.0639 44.936 54.9577 44.7334 54.9577 44.5623L55.0037 32.91L56.4948 31.7155L52.5883 29.0644L48.7668 31.6805L50.1126 33.0078L50.0878 43.3258L46.2946 45.6905C45.7953 45.453 45.4057 45.1561 45.1046 44.8138C44.8071 44.4715 44.63 44.1501 44.6407 43.8183L44.6655 32.8716L46.1565 31.677L42.2288 29.0259L37.1535 32.3372L37.9645 33.0218L39.0872 32.3442L39.8345 32.9799L39.7991 43.9056C39.7991 44.9186 40.1002 45.8721 40.6562 46.7838C41.2619 47.6954 42.0658 48.4324 43.1036 49.0052L50.0807 44.5483V44.695C50.0737 45.7045 50.3322 46.5218 50.8245 47.2658C51.3345 47.9748 52.1137 48.5896 53.201 49.0786L57.8548 45.8512L57.065 45.2329L56.1831 45.7708H56.1867ZM141.698 46.0433C141.337 45.921 141.096 45.7569 140.887 45.5717C140.674 45.3726 140.55 45.1526 140.451 44.8592L140.487 34.0382C140.703 33.7029 141.007 33.3222 141.365 32.8821C141.744 32.428 142.187 31.9425 142.675 31.4011L141.889 30.7794L139.881 32.3093L136.499 29.5115C135.093 30.5698 133.864 31.436 132.84 32.1171C131.827 32.8227 130.935 33.3676 130.141 33.8077C129.89 32.8611 129.525 32.0193 128.997 31.2754C128.487 30.5523 127.804 29.9061 126.996 29.3647L119.768 33.8671V33.6959C119.768 32.6376 119.541 31.7679 119.031 31.0728C118.528 30.3986 117.703 29.8014 116.552 29.2844L112.323 32.6096L113.099 33.2803L113.956 32.7284C114.289 32.9484 114.536 33.1825 114.706 33.4759C114.894 33.7518 114.958 34.0801 114.958 34.5168L114.922 45.198L113.421 46.4345L117.334 49.3056L121.138 46.4624L119.725 45.0862L119.768 35.0197L123.639 32.6481C124.163 32.9065 124.584 33.2209 124.889 33.5772C125.179 33.9299 125.314 34.2513 125.314 34.5342L125.271 45.2294L123.794 46.4694L127.733 49.3336L131.523 46.4973L130.159 45.1281L130.205 34.894L133.534 32.8262L135.645 34.4364L135.61 44.2305C135.599 45.6486 135.829 46.7279 136.286 47.4684C136.747 48.1984 137.558 48.8306 138.684 49.372L143.387 46.1446L142.58 45.5228L141.701 46.0398L141.698 46.0433ZM188.346 30.8457V28.3763L189.419 28.3798C189.681 28.3798 189.872 28.4077 190 28.4461C190.117 28.495 190.202 28.5788 190.29 28.6871C190.358 28.7989 190.396 28.9212 190.396 29.0713C190.396 29.2565 190.34 29.4241 190.226 29.5394C190.12 29.6477 189.947 29.728 189.731 29.7664C189.844 29.8328 189.929 29.9027 190.003 29.969C190.074 30.0459 190.17 30.1856 190.294 30.3742L190.595 30.8562H189.993L189.628 30.3183C189.504 30.1227 189.412 30.0039 189.355 29.9516L189.224 29.8538C189.16 29.8328 189.068 29.8188 188.955 29.8188H188.845V30.8492H188.349L188.346 30.8457ZM189.348 27.4192C190.605 27.4192 191.615 28.4112 191.608 29.6302C191.608 30.8422 190.591 31.8202 189.338 31.8202C188.077 31.8202 187.057 30.8283 187.067 29.6162C187.074 28.4007 188.098 27.4192 189.348 27.4192ZM189.352 27.0525C190.811 27.0594 192.008 28.2016 192.001 29.6267C191.994 31.0413 190.797 32.1765 189.338 32.173C187.871 32.1695 186.685 31.0169 186.685 29.6023C186.695 28.1876 187.882 27.049 189.352 27.049V27.0525Z" fill="#151515"/>
</g>
<defs>
<clipPath id="clip0_4824_22663">
<rect width="192" height="54" fill="white"/>
</clipPath>
</defs>
</svg>
